<mxfile host="app.diagrams.net" modified="2020-10-21T19:56:04.989Z" agent="5.0 (Macintosh; Intel Mac OS X 10_15_7) AppleWebKit/537.36 (KHTML, like Gecko) Chrome/86.0.4240.80 Safari/537.36" etag="n84Eod0fx7QGpZQ90XTJ" version="13.8.1" type="github">
  <diagram id="C5RBs43oDa-KdzZeNtuy" name="Page-1">
    <mxGraphModel dx="946" dy="646" grid="1" gridSize="10" guides="1" tooltips="1" connect="1" arrows="1" fold="1" page="1" pageScale="1" pageWidth="827" pageHeight="1169" math="0" shadow="0">
      <root>
        <mxCell id="WIyWlLk6GJQsqaUBKTNV-0" />
        <mxCell id="WIyWlLk6GJQsqaUBKTNV-1" parent="WIyWlLk6GJQsqaUBKTNV-0" />
        <mxCell id="WIyWlLk6GJQsqaUBKTNV-2" value="" style="rounded=0;html=1;jettySize=auto;orthogonalLoop=1;fontSize=11;endArrow=block;endFill=0;endSize=8;strokeWidth=1;shadow=0;labelBackgroundColor=none;edgeStyle=orthogonalEdgeStyle;entryX=0.5;entryY=0;entryDx=0;entryDy=0;" parent="WIyWlLk6GJQsqaUBKTNV-1" source="WIyWlLk6GJQsqaUBKTNV-3" target="RjHnJ5GLmsFWdJhnKsDX-2" edge="1">
          <mxGeometry relative="1" as="geometry">
            <mxPoint x="220" y="170" as="targetPoint" />
          </mxGeometry>
        </mxCell>
        <mxCell id="RjHnJ5GLmsFWdJhnKsDX-11" value="" style="edgeStyle=orthogonalEdgeStyle;rounded=0;orthogonalLoop=1;jettySize=auto;html=1;endArrow=block;endFill=0;" edge="1" parent="WIyWlLk6GJQsqaUBKTNV-1" source="WIyWlLk6GJQsqaUBKTNV-3" target="RjHnJ5GLmsFWdJhnKsDX-10">
          <mxGeometry relative="1" as="geometry" />
        </mxCell>
        <mxCell id="RjHnJ5GLmsFWdJhnKsDX-12" value="" style="edgeStyle=orthogonalEdgeStyle;rounded=0;orthogonalLoop=1;jettySize=auto;html=1;endArrow=block;endFill=0;startArrow=block;startFill=0;" edge="1" parent="WIyWlLk6GJQsqaUBKTNV-1" source="WIyWlLk6GJQsqaUBKTNV-3" target="RjHnJ5GLmsFWdJhnKsDX-9">
          <mxGeometry relative="1" as="geometry" />
        </mxCell>
        <mxCell id="WIyWlLk6GJQsqaUBKTNV-3" value="Создано" style="rounded=1;whiteSpace=wrap;html=1;fontSize=12;glass=0;strokeWidth=1;shadow=0;" parent="WIyWlLk6GJQsqaUBKTNV-1" vertex="1">
          <mxGeometry x="320" y="80" width="120" height="40" as="geometry" />
        </mxCell>
        <mxCell id="RjHnJ5GLmsFWdJhnKsDX-14" value="" style="edgeStyle=orthogonalEdgeStyle;rounded=0;orthogonalLoop=1;jettySize=auto;html=1;endArrow=block;endFill=0;" edge="1" parent="WIyWlLk6GJQsqaUBKTNV-1" source="RjHnJ5GLmsFWdJhnKsDX-2" target="RjHnJ5GLmsFWdJhnKsDX-13">
          <mxGeometry relative="1" as="geometry" />
        </mxCell>
        <mxCell id="RjHnJ5GLmsFWdJhnKsDX-2" value="заявить" style="rounded=1;whiteSpace=wrap;html=1;" vertex="1" parent="WIyWlLk6GJQsqaUBKTNV-1">
          <mxGeometry x="40" y="160" width="120" height="60" as="geometry" />
        </mxCell>
        <mxCell id="RjHnJ5GLmsFWdJhnKsDX-9" value="отозвать" style="rounded=1;whiteSpace=wrap;html=1;" vertex="1" parent="WIyWlLk6GJQsqaUBKTNV-1">
          <mxGeometry x="320" y="160" width="120" height="60" as="geometry" />
        </mxCell>
        <mxCell id="RjHnJ5GLmsFWdJhnKsDX-20" value="" style="edgeStyle=orthogonalEdgeStyle;rounded=0;orthogonalLoop=1;jettySize=auto;html=1;startArrow=block;startFill=0;endArrow=block;endFill=0;" edge="1" parent="WIyWlLk6GJQsqaUBKTNV-1" source="RjHnJ5GLmsFWdJhnKsDX-10" target="RjHnJ5GLmsFWdJhnKsDX-19">
          <mxGeometry relative="1" as="geometry" />
        </mxCell>
        <mxCell id="RjHnJ5GLmsFWdJhnKsDX-10" value="аннулировать" style="whiteSpace=wrap;html=1;rounded=1;shadow=0;strokeWidth=1;glass=0;" vertex="1" parent="WIyWlLk6GJQsqaUBKTNV-1">
          <mxGeometry x="600" y="160" width="120" height="60" as="geometry" />
        </mxCell>
        <mxCell id="RjHnJ5GLmsFWdJhnKsDX-22" value="" style="edgeStyle=orthogonalEdgeStyle;rounded=0;orthogonalLoop=1;jettySize=auto;html=1;startArrow=none;startFill=0;endArrow=block;endFill=0;" edge="1" parent="WIyWlLk6GJQsqaUBKTNV-1" source="RjHnJ5GLmsFWdJhnKsDX-13" target="RjHnJ5GLmsFWdJhnKsDX-21">
          <mxGeometry relative="1" as="geometry" />
        </mxCell>
        <mxCell id="RjHnJ5GLmsFWdJhnKsDX-13" value="заявлено" style="whiteSpace=wrap;html=1;rounded=1;" vertex="1" parent="WIyWlLk6GJQsqaUBKTNV-1">
          <mxGeometry x="40" y="280" width="120" height="60" as="geometry" />
        </mxCell>
        <mxCell id="RjHnJ5GLmsFWdJhnKsDX-19" value="аннулировано" style="whiteSpace=wrap;html=1;rounded=1;shadow=0;strokeWidth=1;glass=0;" vertex="1" parent="WIyWlLk6GJQsqaUBKTNV-1">
          <mxGeometry x="600" y="270" width="120" height="60" as="geometry" />
        </mxCell>
        <mxCell id="RjHnJ5GLmsFWdJhnKsDX-24" value="" style="edgeStyle=orthogonalEdgeStyle;rounded=0;orthogonalLoop=1;jettySize=auto;html=1;startArrow=none;startFill=0;endArrow=block;endFill=0;" edge="1" parent="WIyWlLk6GJQsqaUBKTNV-1" source="RjHnJ5GLmsFWdJhnKsDX-21" target="RjHnJ5GLmsFWdJhnKsDX-23">
          <mxGeometry relative="1" as="geometry" />
        </mxCell>
        <mxCell id="RjHnJ5GLmsFWdJhnKsDX-31" style="edgeStyle=orthogonalEdgeStyle;rounded=0;orthogonalLoop=1;jettySize=auto;html=1;exitX=1;exitY=0.5;exitDx=0;exitDy=0;entryX=0;entryY=0.5;entryDx=0;entryDy=0;startArrow=none;startFill=0;endArrow=block;endFill=0;" edge="1" parent="WIyWlLk6GJQsqaUBKTNV-1" source="RjHnJ5GLmsFWdJhnKsDX-21" target="RjHnJ5GLmsFWdJhnKsDX-10">
          <mxGeometry relative="1" as="geometry" />
        </mxCell>
        <mxCell id="RjHnJ5GLmsFWdJhnKsDX-34" style="edgeStyle=orthogonalEdgeStyle;rounded=0;orthogonalLoop=1;jettySize=auto;html=1;exitX=0;exitY=0.75;exitDx=0;exitDy=0;startArrow=none;startFill=0;endArrow=block;endFill=0;entryX=0.5;entryY=0;entryDx=0;entryDy=0;" edge="1" parent="WIyWlLk6GJQsqaUBKTNV-1" source="RjHnJ5GLmsFWdJhnKsDX-21" target="RjHnJ5GLmsFWdJhnKsDX-32">
          <mxGeometry relative="1" as="geometry">
            <mxPoint x="190" y="380" as="targetPoint" />
          </mxGeometry>
        </mxCell>
        <mxCell id="RjHnJ5GLmsFWdJhnKsDX-36" style="edgeStyle=orthogonalEdgeStyle;rounded=0;orthogonalLoop=1;jettySize=auto;html=1;exitX=1;exitY=0.75;exitDx=0;exitDy=0;entryX=0.5;entryY=0;entryDx=0;entryDy=0;startArrow=none;startFill=0;endArrow=block;endFill=0;" edge="1" parent="WIyWlLk6GJQsqaUBKTNV-1" source="RjHnJ5GLmsFWdJhnKsDX-21" target="RjHnJ5GLmsFWdJhnKsDX-35">
          <mxGeometry relative="1" as="geometry" />
        </mxCell>
        <mxCell id="RjHnJ5GLmsFWdJhnKsDX-21" value="в работе" style="whiteSpace=wrap;html=1;rounded=1;" vertex="1" parent="WIyWlLk6GJQsqaUBKTNV-1">
          <mxGeometry x="320" y="280" width="120" height="60" as="geometry" />
        </mxCell>
        <mxCell id="RjHnJ5GLmsFWdJhnKsDX-26" value="" style="edgeStyle=orthogonalEdgeStyle;rounded=0;orthogonalLoop=1;jettySize=auto;html=1;startArrow=none;startFill=0;endArrow=block;endFill=0;" edge="1" parent="WIyWlLk6GJQsqaUBKTNV-1" source="RjHnJ5GLmsFWdJhnKsDX-23" target="RjHnJ5GLmsFWdJhnKsDX-25">
          <mxGeometry relative="1" as="geometry" />
        </mxCell>
        <mxCell id="RjHnJ5GLmsFWdJhnKsDX-23" value="взять в работу" style="whiteSpace=wrap;html=1;rounded=1;" vertex="1" parent="WIyWlLk6GJQsqaUBKTNV-1">
          <mxGeometry x="320" y="390" width="120" height="60" as="geometry" />
        </mxCell>
        <mxCell id="RjHnJ5GLmsFWdJhnKsDX-30" value="" style="edgeStyle=orthogonalEdgeStyle;rounded=0;orthogonalLoop=1;jettySize=auto;html=1;startArrow=none;startFill=0;endArrow=block;endFill=0;" edge="1" parent="WIyWlLk6GJQsqaUBKTNV-1" source="RjHnJ5GLmsFWdJhnKsDX-25" target="RjHnJ5GLmsFWdJhnKsDX-27">
          <mxGeometry relative="1" as="geometry" />
        </mxCell>
        <mxCell id="RjHnJ5GLmsFWdJhnKsDX-25" value="проведено" style="whiteSpace=wrap;html=1;rounded=1;" vertex="1" parent="WIyWlLk6GJQsqaUBKTNV-1">
          <mxGeometry x="320" y="480" width="120" height="60" as="geometry" />
        </mxCell>
        <mxCell id="RjHnJ5GLmsFWdJhnKsDX-27" value="выполнено" style="whiteSpace=wrap;html=1;rounded=1;" vertex="1" parent="WIyWlLk6GJQsqaUBKTNV-1">
          <mxGeometry x="320" y="580" width="120" height="60" as="geometry" />
        </mxCell>
        <mxCell id="RjHnJ5GLmsFWdJhnKsDX-37" style="edgeStyle=orthogonalEdgeStyle;rounded=0;orthogonalLoop=1;jettySize=auto;html=1;exitX=1;exitY=0.5;exitDx=0;exitDy=0;entryX=0;entryY=0.5;entryDx=0;entryDy=0;startArrow=none;startFill=0;endArrow=block;endFill=0;" edge="1" parent="WIyWlLk6GJQsqaUBKTNV-1" source="RjHnJ5GLmsFWdJhnKsDX-32" target="RjHnJ5GLmsFWdJhnKsDX-23">
          <mxGeometry relative="1" as="geometry" />
        </mxCell>
        <mxCell id="RjHnJ5GLmsFWdJhnKsDX-32" value="согласовать" style="rounded=1;whiteSpace=wrap;html=1;" vertex="1" parent="WIyWlLk6GJQsqaUBKTNV-1">
          <mxGeometry x="130" y="390" width="120" height="60" as="geometry" />
        </mxCell>
        <mxCell id="RjHnJ5GLmsFWdJhnKsDX-38" style="edgeStyle=orthogonalEdgeStyle;rounded=0;orthogonalLoop=1;jettySize=auto;html=1;exitX=0;exitY=0.5;exitDx=0;exitDy=0;startArrow=none;startFill=0;endArrow=block;endFill=0;" edge="1" parent="WIyWlLk6GJQsqaUBKTNV-1" source="RjHnJ5GLmsFWdJhnKsDX-35" target="RjHnJ5GLmsFWdJhnKsDX-23">
          <mxGeometry relative="1" as="geometry" />
        </mxCell>
        <mxCell id="RjHnJ5GLmsFWdJhnKsDX-35" value="выбрать решение" style="rounded=1;whiteSpace=wrap;html=1;" vertex="1" parent="WIyWlLk6GJQsqaUBKTNV-1">
          <mxGeometry x="510" y="390" width="120" height="60" as="geometry" />
        </mxCell>
      </root>
    </mxGraphModel>
  </diagram>
</mxfile>
